# File created by Blade
# Date/Time:  Thu Sep 25 15:41:58 2014
# Frame Rate: 120.000 fps
#------------------------------------------------------
:FULLY-SPECIFIED
:DEGREES
281
root 26.945288 32.489378 -2.000537 160.918971 -73.520914 -135.344486
Spine 9.747255 13.950329 6.984706
Head -15.201578 -1.170245 5.256862
LeftShoulder 1.195681 17.993552 13.858515
LeftArm 45.976139 33.147047 -56.739523
LeftForeArm 2.747217 -0.000000 19.489310
LeftHand -28.290077 -0.000000 12.094568
LeftHandThumb1 -26.253704 0.000000 33.147579
RightShoulder -3.191366 19.159849 -20.525106
RightArm 15.626811 -43.409075 82.637091
RightForeArm -24.302263 0.000000 17.263094
RightHand -4.013512 -0.000000 4.429914
RightHandThumb1 -24.326973 -0.000000 -32.862282
LeftUpLeg -57.343363 14.237869 0.202421
LeftLeg 6.560736 -0.000000 -0.000000
LeftFoot 36.969138 28.125003 -16.051764
LeftToeBase 19.402979 -0.000000 -0.000000
RightUpLeg -24.638572 -1.294436 19.684140
RightLeg 4.808406 -0.000000 -0.000000
RightFoot -7.982281 -6.106442 -9.411136
RightToeBase 0.034749 -0.000000 -0.000000
282
root 26.952295 32.478429 -2.016005 160.859934 -73.333814 -135.138640
Spine 9.831249 14.046202 7.032519
Head -15.424320 -1.064068 5.313700
LeftShoulder 1.248041 17.880980 13.953845
LeftArm 45.996655 33.090867 -56.842371
LeftForeArm 2.747713 -0.000000 19.559724
LeftHand -28.105524 -0.000000 12.107483
LeftHandThumb1 -26.253704 0.000000 33.147579
RightShoulder -2.899695 19.477573 -20.528124
RightArm 15.125628 -43.042907 83.099133
RightForeArm -24.523721 -0.000000 17.368648
RightHand -3.957539 -0.000000 4.426855
RightHandThumb1 -24.326973 -0.000000 -32.862282
LeftUpLeg -57.317380 14.505219 0.161323
LeftLeg 6.197290 -0.000000 -0.000000
LeftFoot 36.835477 28.120073 -16.160432
LeftToeBase 19.182659 -0.000000 -0.000000
RightUpLeg -24.747290 -1.041195 19.819443
RightLeg 4.823567 -0.000000 -0.000000
RightFoot -7.889144 -6.279066 -9.651971
RightToeBase -0.181573 -0.000000 0.000000
283
root 26.960676 32.468258 -2.031636 160.780438 -73.159262 -134.916114
Spine 9.934873 14.154835 7.088213
Head -15.658095 -0.981889 5.379826
LeftShoulder 1.279668 17.734704 14.028223
LeftArm 46.088237 33.070493 -56.878915
LeftForeArm 2.679415 -0.000000 19.638146
LeftHand -28.282337 -0.000000 12.177492
LeftHandThumb1 -26.253704 0.000000 33.147579
RightShoulder -2.767738 19.637042 -20.492544
RightArm 15.090589 -43.021264 83.172212
RightForeArm -24.476105 0.000000 17.366710
RightHand -4.028454 -0.000000 4.418880
RightHandThumb1 -24.326973 -0.000000 -32.862282
LeftUpLeg -57.341047 14.794677 0.067166
LeftLeg 5.893934 -0.000000 -0.000000
LeftFoot 36.772663 28.060043 -16.175248
LeftToeBase 18.995861 -0.000000 -0.000000
RightUpLeg -24.852337 -0.730406 19.921681
RightLeg 4.874494 -0.000000 -0.000000
RightFoot -7.899079 -6.361898 -9.698473
RightToeBase -0.144862 -0.000000 0.000000
284
root 26.967559 32.459175 -2.047346 160.664269 -73.004055 -134.692905
Spine 10.068931 14.250993 7.164363
Head -15.836592 -0.960226 5.392934
LeftShoulder 1.410863 17.736311 14.105781
LeftArm 46.152362 32.846629 -56.968095
LeftForeArm 2.793650 0.000000 19.804503
LeftHand -28.114875 -0.000000 12.383865
LeftHandThumb1 -26.253704 0.000000 33.147579
RightShoulder -2.810501 19.438197 -20.395427
RightArm 15.841115 -43.328363 82.638698
RightForeArm -24.236073 -0.000000 17.188549
RightHand -3.941206 -0.000000 4.473602
RightHandThumb1 -24.326973 -0.000000 -32.862282
LeftUpLeg -57.354857 15.083522 -0.050812
LeftLeg 5.625095 -0.000000 -0.000000
LeftFoot 36.712568 28.008958 -16.253018
LeftToeBase 18.746510 -0.000000 -0.000000
RightUpLeg -24.915748 -0.444822 20.015020
RightLeg 4.890194 -0.000000 -0.000000
RightFoot -7.857548 -6.486168 -9.781350
RightToeBase -0.170428 -0.000000 0.000000
285
root 26.975974 32.449555 -2.063905 160.418796 -72.891097 -134.338372
Spine 10.186549 14.262700 7.259544
Head -15.963359 -0.855737 5.409249
LeftShoulder 1.477255 17.592658 14.182984
LeftArm 46.232402 32.791794 -57.038883
LeftForeArm 2.762435 -0.000000 19.846847
LeftHand -28.387297 -0.000000 12.364160
LeftHandThumb1 -26.253704 0.000000 33.147579
RightShoulder -2.422596 19.725123 -20.398046
RightArm 15.407102 -43.087185 83.021132
RightForeArm -24.665806 -0.000000 17.232917
RightHand -4.033902 -0.000000 4.155233
RightHandThumb1 -24.326973 -0.000000 -32.862282
LeftUpLeg -57.358114 15.292282 -0.109832
LeftLeg 5.342211 -0.000000 -0.000000
LeftFoot 36.670971 27.951843 -16.287390
LeftToeBase 18.575817 -0.000000 -0.000000
RightUpLeg -24.924822 -0.038384 20.062737
RightLeg 4.766701 -0.000000 -0.000000
RightFoot -7.726503 -6.803703 -9.857524
RightToeBase -0.211063 -0.000000 0.000000
286
root 26.980281 32.441255 -2.077603 160.148636 -72.836089 -133.940163
Spine 10.333166 14.268660 7.346065
Head -16.272482 -0.829924 5.411242
LeftShoulder 1.528925 17.453354 14.251572
LeftArm 46.313648 32.719540 -57.125143
LeftForeArm 2.932437 -0.000000 19.933947
LeftHand -28.245570 0.000000 12.484786
LeftHandThumb1 -26.253704 0.000000 33.147579
RightShoulder -2.357791 19.812330 -20.358814
RightArm 15.534342 -43.161823 82.938561
RightForeArm -24.576087 -0.000000 17.223907
RightHand -3.985838 -0.000000 4.272229
RightHandThumb1 -24.326973 -0.000000 -32.862282
LeftUpLeg -57.364015 15.403861 -0.137203
LeftLeg 5.066149 -0.000000 -0.000000
LeftFoot 36.649768 27.874028 -16.272748
LeftToeBase 18.469385 -0.000000 -0.000000
RightUpLeg -25.021467 0.079277 20.187153
RightLeg 4.768483 -0.000000 -0.000000
RightFoot -7.711623 -6.853174 -9.933727
RightToeBase -0.257586 -0.000000 0.000000
287
root 26.985402 32.433443 -2.091451 159.796969 -72.806244 -133.486321
Spine 10.476237 14.256752 7.476017
Head -16.453383 -0.764342 5.364767
LeftShoulder 1.653100 17.424526 14.314143
LeftArm 46.478482 32.547831 -57.171379
LeftForeArm 3.059892 -0.000000 20.005879
LeftHand -28.387452 -0.000000 12.665184
LeftHandThumb1 -26.253704 0.000000 33.147579
RightShoulder -2.440063 19.637797 -20.307181
RightArm 16.222208 -43.425002 82.441687
RightForeArm -24.296669 0.000000 17.069827
RightHand -3.913378 0.000000 4.508145
RightHandThumb1 -24.326973 -0.000000 -32.862282
LeftUpLeg -57.380016 15.546542 -0.236821
LeftLeg 4.803797 -0.000000 -0.000000
LeftFoot 36.709186 27.630996 -16.255492
LeftToeBase 17.747240 -0.000000 -0.000000
RightUpLeg -25.091349 0.175078 20.314103
RightLeg 4.731088 -0.000000 -0.000000
RightFoot -7.635514 -6.996067 -10.052036
RightToeBase -0.400087 -0.000000 0.000000
288
root 26.989354 32.427674 -2.102468 159.516985 -72.833823 -133.115562
Spine 10.643636 14.185035 7.552506
Head -16.649150 -0.750470 5.330607
LeftShoulder 1.722958 17.303325 14.334309
LeftArm 46.674025 32.497899 -57.088329
LeftForeArm 2.957573 -0.000000 20.038689
LeftHand -28.361985 0.000000 12.774356
LeftHandThumb1 -26.253704 0.000000 33.147579
RightShoulder -2.138269 19.904890 -20.338891
RightArm 15.906099 -43.223602 82.696146
RightForeArm -24.309979 -0.000000 17.122302
RightHand -3.909144 -0.000000 4.617637
RightHandThumb1 -24.326973 -0.000000 -32.862282
LeftUpLeg -57.370944 15.543603 -0.236592
LeftLeg 4.634724 -0.000000 -0.000000
LeftFoot 36.629847 27.595769 -16.240884
LeftToeBase 17.927539 -0.000000 -0.000000
RightUpLeg -25.273511 -0.038948 20.491976
RightLeg 4.956479 -0.000000 -0.000000
RightFoot -7.829399 -6.707493 -10.042657
RightToeBase -0.395144 -0.000000 0.000000
289
root 26.996967 32.421391 -2.116428 159.065961 -72.874712 -132.561783
Spine 10.798860 14.107955 7.670644
Head -16.853974 -0.736020 5.336674
LeftShoulder 1.866488 17.136541 14.435639
LeftArm 46.727498 32.400957 -57.202647
LeftForeArm 3.104883 -0.000000 20.113799
LeftHand -28.355124 0.000000 12.803051
LeftHandThumb1 -26.253704 0.000000 33.147579
RightShoulder -2.004052 20.068191 -20.330517
RightArm 15.804358 -43.113113 82.822149
RightForeArm -24.486630 -0.000000 17.111279
RightHand -3.973611 -0.000000 4.509567
RightHandThumb1 -24.326973 -0.000000 -32.862282
LeftUpLeg -57.401002 15.562214 -0.261286
LeftLeg 4.402868 -0.000000 -0.000000
LeftFoot 36.768555 27.437336 -16.203805
LeftToeBase 17.440597 -0.000000 -0.000000
RightUpLeg -25.382017 -0.095312 20.652862
RightLeg 4.960597 -0.000000 -0.000000
RightFoot -7.792062 -6.751208 -10.163869
RightToeBase -0.523795 -0.000000 0.000000
290
root 27.002355 32.417575 -2.130536 158.623889 -72.911121 -132.027644
Spine 10.963425 14.057837 7.789288
Head -17.023783 -0.745222 5.329611
LeftShoulder 1.995733 17.023255 14.499411
LeftArm 46.933653 32.324540 -57.159922
LeftForeArm 3.096049 -0.000000 20.128768
LeftHand -28.386042 -0.000000 13.038232
LeftHandThumb1 -26.253704 0.000000 33.147579
RightShoulder -1.942372 20.037626 -20.296736
RightArm 16.076216 -43.121924 82.626944
RightForeArm -24.471602 -0.000000 17.062878
RightHand -3.892758 0.000000 4.629413
RightHandThumb1 -24.326973 -0.000000 -32.862282
LeftUpLeg -57.421876 15.571223 -0.262764
LeftLeg 4.282437 -0.000000 -0.000000
LeftFoot 36.680341 27.292633 -16.289151
LeftToeBase 17.057023 -0.000000 -0.000000
RightUpLeg -25.436435 -0.010648 20.744926
RightLeg 4.918501 -0.000000 -0.000000
RightFoot -7.783670 -6.796611 -10.099582
RightToeBase -0.432568 -0.000000 0.000000
291
root 27.011972 32.413140 -2.143959 158.155588 -72.978819 -131.512604
Spine 11.164255 13.954258 7.916984
Head -17.111183 -0.778893 5.251630
LeftShoulder 2.168382 16.913829 14.569467
LeftArm 47.111876 32.183450 -57.154968
LeftForeArm 3.071594 -0.000000 20.112676
LeftHand -28.366031 -0.000000 12.979536
LeftHandThumb1 -26.253704 0.000000 33.147579
RightShoulder -1.752430 20.059912 -20.292744
RightArm 16.299576 -43.175223 82.460841
RightForeArm -24.329341 -0.000000 16.952073
RightHand -3.773972 -0.000000 4.476397
RightHandThumb1 -24.326973 -0.000000 -32.862282
LeftUpLeg -57.399029 15.451353 -0.114546
LeftLeg 4.233480 -0.000000 -0.000000
LeftFoot 36.583466 27.281311 -16.408627
LeftToeBase 16.806196 -0.000000 -0.000000
RightUpLeg -25.468588 0.013596 20.833091
RightLeg 4.866598 -0.000000 -0.000000
RightFoot -7.739473 -6.913439 -10.185628
RightToeBase -0.499635 -0.000000 0.000000
292
root 27.014904 32.410446 -2.150877 157.837205 -73.074059 -131.171782
Spine 11.409150 13.872701 7.976304
Head -17.305086 -0.820077 5.210526
LeftShoulder 2.307151 16.864777 14.611052
LeftArm 47.404386 31.987519 -57.087043
LeftForeArm 3.071479 -0.000000 20.076728
LeftHand -28.325865 -0.000000 13.029880
LeftHandThumb1 -26.253704 0.000000 33.147579
RightShoulder -1.596444 20.114787 -20.262986
RightArm 16.398596 -43.109321 82.370621
RightForeArm -24.360986 -0.000000 16.955140
RightHand -3.810268 -0.000000 4.492408
RightHandThumb1 -24.326973 -0.000000 -32.862282
LeftUpLeg -57.316756 15.259554 0.050224
LeftLeg 4.163707 -0.000000 -0.000000
LeftFoot 36.444354 27.450293 -16.630030
LeftToeBase 16.390049 -0.000000 -0.000000
RightUpLeg -25.496850 -0.035864 20.873973
RightLeg 4.846155 -0.000000 -0.000000
RightFoot -7.732232 -6.967372 -10.275327
RightToeBase -0.538961 -0.000000 0.000000
